<svg xmlns="http://www.w3.org/2000/svg" xmlns:xlink="http://www.w3.org/1999/xlink" width="308.6" height="72" viewBox="0 0 308.6 72">
  <defs>
    <linearGradient id="linear-gradient" y1="0.5" x2="1" y2="0.5" gradientUnits="objectBoundingBox">
      <stop offset="0" stop-color="#0080fe"/>
      <stop offset="1" stop-color="#6dfff0"/>
    </linearGradient>
  </defs>
  <path id="パス_23" data-name="パス 23" d="M6.3-.2V-70H41.4a25.49,25.49,0,0,1,12.15,2.792,21.342,21.342,0,0,1,8.3,7.729A21.275,21.275,0,0,1,64.9-48.064a20.723,20.723,0,0,1-3.05,11.119,21.253,21.253,0,0,1-8.35,7.729,25.568,25.568,0,0,1-12.1,2.792H20.9V-.2ZM20.9-38.491H39.8a10.786,10.786,0,0,0,7.55-2.593,8.853,8.853,0,0,0,2.85-6.881A9.01,9.01,0,0,0,47.35-54.9a10.662,10.662,0,0,0-7.55-2.643H20.9ZM108.7.9A38.02,38.02,0,0,1,94.25-1.843a36.171,36.171,0,0,1-11.8-7.679A35.36,35.36,0,0,1,74.6-20.989,35.433,35.433,0,0,1,71.8-35.1a33.758,33.758,0,0,1,2.75-14.111,36.029,36.029,0,0,1,7.9-11.468A36.306,36.306,0,0,1,94.2-68.358,37.908,37.908,0,0,1,108.7-71.1a37.908,37.908,0,0,1,14.5,2.742A36.886,36.886,0,0,1,135-60.679a34.989,34.989,0,0,1,7.9,11.468A35.433,35.433,0,0,1,145.7-35.1a35.433,35.433,0,0,1-2.8,14.111A34.989,34.989,0,0,1,135-9.521a36.886,36.886,0,0,1-11.8,7.679A37.908,37.908,0,0,1,108.7.9Zm0-13.263a21.77,21.77,0,0,0,8.8-1.745,22.2,22.2,0,0,0,7-4.787,22.016,22.016,0,0,0,4.7-7.18,23.524,23.524,0,0,0,1.7-9.025,25.588,25.588,0,0,0-1.75-9.025,21.37,21.37,0,0,0-4.65-7.18,22.2,22.2,0,0,0-7-4.787,21.77,21.77,0,0,0-8.8-1.745,21.518,21.518,0,0,0-8.7,1.745,22.2,22.2,0,0,0-7,4.787,22.016,22.016,0,0,0-4.7,7.18A23.524,23.524,0,0,0,86.6-35.1a23.634,23.634,0,0,0,1.7,8.975A21.89,21.89,0,0,0,93-18.9a22.2,22.2,0,0,0,7,4.787A21.518,21.518,0,0,0,108.7-12.363ZM155.7-.2V-70h14.6V-.2Zm27.2,0V-70h13.8l34.7,45.075V-70h13.7V-.2H232.3L196.6-46.768V-.2Zm94,0-.1-56.942-23.6-.1L253.3-70h61.6v12.864l-23.6-.1L291.4-.2Z" transform="translate(-6.3 71.1)" opacity="0.2" fill="url(#linear-gradient)"/>
</svg>
